<svg xmlns="http://www.w3.org/2000/svg" viewBox="0 0 72.26 48.52"><title>bull</title><g><path d="M43.72 48.52H28.84a6.22 6.22 0 0 1-4.56-10.44l-4.6-13.33a8 8 0 0 1-.34-2.19l-1.26-8.86v-.12a8 8 0 0 1 8-8h20.4a8 8 0 0 1 8 8v.12l-1.26 8.85a8 8 0 0 1-.34 2.19v.06l-4.6 13.27a6.22 6.22 0 0 1-4.56 10.44zM22.93 23.73l4.69 13.58a4.53 4.53 0 0 0 .22.57l.59 1.3-1.18.82a2.81 2.81 0 0 0 1.59 5.14h14.88A2.81 2.81 0 0 0 45.31 40l-1.17-.81.59-1.3a4.73 4.73 0 0 0 .22-.57v-.06l4.66-13.51a4.6 4.6 0 0 0 .19-1.31v-.14l1.26-8.83A4.6 4.6 0 0 0 46.48 9H26.09a4.6 4.6 0 0 0-4.6 4.49l1.26 8.83v.12a4.64 4.64 0 0 0 .19 1.31zM36.62 17.35a27.16 27.16 0 0 1-9-1.57.85.85 0 1 1 .56-1.61 24.18 24.18 0 0 0 16.59 0 .85.85 0 0 1 .58 1.6 25.53 25.53 0 0 1-8.77 1.57zM34.25 33.44a.85.85 0 0 1-.85-.85 12.35 12.35 0 0 0-1.82-6.88 4 4 0 0 1-2.77-.45 4.77 4.77 0 0 1-2-3.75l-.16-1.3 1.25.39a10.48 10.48 0 0 1 4.61 3.51.85.85 0 0 1 .22.29 13.71 13.71 0 0 1 2.37 8.19.85.85 0 0 1-.85.85zM29 23.06a2 2 0 0 0 .7.75 1.81 1.81 0 0 0 .48.2 9.15 9.15 0 0 0-1.17-1zM38.32 33.44a.85.85 0 0 1-.85-.85 13.71 13.71 0 0 1 2.37-8.19.85.85 0 0 1 .22-.29 10.48 10.48 0 0 1 4.61-3.51l1.25-.39-.16 1.3a4.77 4.77 0 0 1-2 3.75 4 4 0 0 1-2.79.45 12.42 12.42 0 0 0-1.8 6.88.85.85 0 0 1-.85.85zM43.58 23a9 9 0 0 0-1.22 1 1.8 1.8 0 0 0 .52-.22 2 2 0 0 0 .7-.77zM35.15 43.36a.85.85 0 0 1-.85-.85c0-1.86-1.1-2-1.15-2a.85.85 0 1 1 .16-1.69c.93.09 2.69 1 2.69 3.68a.85.85 0 0 1-.85.85zM38 43.36a.85.85 0 0 1-.85-.85c0-2.72 1.76-3.6 2.69-3.68a.85.85 0 0 1 .17 1.69c-.2 0-1.16.25-1.16 2a.85.85 0 0 1-.85.85zM17.24 22.26c-7.91 0-13.06-1.74-15.32-5.17-2.49-3.78-.47-8.09-.38-8.26a17.55 17.55 0 0 1 6-7.07C9.21.6 10.44.39 11.18 1.13s.46 2-.15 2.92a17 17 0 0 0-2.48 5.3A1.92 1.92 0 0 0 9.1 11c2 2.07 8.34 2 10.62 1.87a.85.85 0 0 1 .14 1.7c-.92.07-9.09.63-12-2.39a3.65 3.65 0 0 1-1-3.07V9a18.14 18.14 0 0 1 2.78-5.92 1.69 1.69 0 0 0 .28-.66 4.41 4.41 0 0 0-1.41.74 15.88 15.88 0 0 0-5.43 6.4s-1.69 3.64.27 6.6c2.12 3.21 7.8 4.71 16.4 4.34a.85.85 0 0 1 .07 1.7q-1.33.06-2.58.06zM17.24 22.95c-8.16 0-13.51-1.85-15.9-5.48-2.69-4.1-.52-8.74-.42-8.94a18.21 18.21 0 0 1 6.22-7.34c2-1.38 3.51-1.56 4.53-.55s.7 2.7-.07 3.8a16.47 16.47 0 0 0-2.37 5 1.24 1.24 0 0 0 .36 1c1.65 1.72 7.5 1.86 10.07 1.66a1.54 1.54 0 0 1 .24 3.07c-1.56.12-9.49.58-12.54-2.6A4.32 4.32 0 0 1 6.18 9v-.1A17.6 17.6 0 0 1 8 4.38a15.13 15.13 0 0 0-4.3 5.47s-1.51 3.31.22 5.93c2 3 7.45 4.39 15.79 4a1.56 1.56 0 0 1 1.61 1.47 1.54 1.54 0 0 1-1.47 1.61c-.91.07-1.78.09-2.61.09zM10.07 1.39a4.49 4.49 0 0 0-2.15.94 16.86 16.86 0 0 0-5.76 6.8c-.08.17-1.94 4.14.33 7.58 2.12 3.23 7.09 4.86 14.75 4.86.8 0 1.66 0 2.55-.06a.16.16 0 0 0 .15-.17c0-.09-.07-.14-.17-.15-8.85.38-14.77-1.19-17-4.65s-.33-7.24-.31-7.28a16.56 16.56 0 0 1 5.65-6.67 5.19 5.19 0 0 1 1.66-.84l.85-.19a.87.87 0 0 0-.55-.17zm.67.29l-.14.86a2.38 2.38 0 0 1-.4.94 17.61 17.61 0 0 0-2.65 5.69 2.93 2.93 0 0 0 .82 2.48c2.17 2.26 8.2 2.43 11.43 2.18a.16.16 0 0 0 .15-.17.16.16 0 0 0-.06-.11.16.16 0 0 0-.11 0c-.09 0-8.57.65-11.18-2.08a2.6 2.6 0 0 1-.74-2.19v-.1a17.53 17.53 0 0 1 2.59-5.53c.45-.65.68-1.5.29-1.97zM55 22.26q-1.24 0-2.58-.06a.85.85 0 1 1 .07-1.7c8.6.37 14.28-1.13 16.4-4.34 2-3 .29-6.56.27-6.59a15.89 15.89 0 0 0-5.43-6.41 4.42 4.42 0 0 0-1.41-.74 1.69 1.69 0 0 0 .28.66A18.14 18.14 0 0 1 65.37 9v.1a3.65 3.65 0 0 1-1 3.07c-2.89 3-11.06 2.46-12 2.39a.85.85 0 0 1 .14-1.7c2.28.18 8.64.2 10.62-1.87a1.92 1.92 0 0 0 .55-1.64 17 17 0 0 0-2.49-5.29c-.6-.87-.91-2.16-.15-2.92s2-.53 3.65.63a17.56 17.56 0 0 1 6 7.08c.08.17 2.11 4.46-.38 8.24-2.26 3.44-7.41 5.17-15.32 5.17zM55 22.95c-.82 0-1.7 0-2.61-.06a1.54 1.54 0 0 1-1.47-1.61 1.56 1.56 0 0 1 1.61-1.47c8.35.35 13.81-1 15.79-4 1.73-2.61.24-5.89.22-5.92a15.18 15.18 0 0 0-4.32-5.49A17.68 17.68 0 0 1 66 8.88v.1a4.34 4.34 0 0 1-1.19 3.66c-3 3.18-11 2.72-12.54 2.6a1.54 1.54 0 0 1-.87-2.71 1.51 1.51 0 0 1 1.12-.36c2.57.2 8.41.07 10.06-1.66a1.23 1.23 0 0 0 .36-1 16.42 16.42 0 0 0-2.37-5c-.76-1.1-1.11-2.76-.07-3.8s2.54-.83 4.53.55a18.25 18.25 0 0 1 6.23 7.36c.09.19 2.28 4.8-.43 8.92-2.32 3.56-7.67 5.41-15.83 5.41zm-2.54-1.76a.16.16 0 0 0-.16.15.16.16 0 0 0 .15.17c.89 0 1.74.06 2.55.06 7.66 0 12.62-1.64 14.75-4.86 2.28-3.47.36-7.52.34-7.56a16.89 16.89 0 0 0-5.77-6.82c-.9-.62-2.07-1.24-2.69-.77l.85.19a5.21 5.21 0 0 1 1.66.84 16.58 16.58 0 0 1 5.66 6.69c.08.16 1.84 4-.32 7.27s-8.14 5-17 4.65zm0-7.65a.15.15 0 0 0-.1 0 .16.16 0 0 0-.06.11.16.16 0 0 0 .15.17c3.22.26 9.26.09 11.43-2.18a3 3 0 0 0 .82-2.51A17.39 17.39 0 0 0 62 3.48a2.38 2.38 0 0 1-.4-.94l-.14-.86c-.39.47-.16 1.36.27 2a17.49 17.49 0 0 1 2.59 5.53v.09a2.6 2.6 0 0 1-.73 2.19c-2.59 2.7-11.03 2.06-11.11 2.05z"/></g></svg>