<svg xmlns="http://www.w3.org/2000/svg" viewBox="0 0 55.27 52.53"><title>change-expairy</title><g><path d="M48.66 30a19.92 19.92 0 0 1-33.75 10.83c-4.74-4.74-5.83-11.27-4.79-17.4l4.14 1.25-3.65-14.09L0 20.47l3.84 1.46c-1 7.66 1 17.16 6.93 23A25.78 25.78 0 0 0 54.58 30z"/><rect x="17.19" y="2.8" width="3.54" height="7.18" rx="1.77" ry="1.77" transform="translate(-.56 10.81) rotate(-31.38)"/><rect x="25.52" width="3.54" height="7.18" rx="1.77" ry="1.77" transform="translate(-.02 .17) rotate(-.35)"/><rect x="33.74" y=".99" width="3.54" height="7.18" rx="1.77" ry="1.77" transform="matrix(.96 .27 -.27 .96 2.5 -9.28)"/><rect x="41.78" y="4.75" width="3.54" height="7.18" rx="1.77" ry="1.77" transform="translate(15.02 -25.6) rotate(39.1)"/><rect x="47.65" y="11.59" width="3.54" height="7.18" rx="1.77" ry="1.77" transform="translate(31.11 -33.17) rotate(52.19)"/><rect x="49.92" y="20.37" width="3.54" height="7.18" rx="1.77" ry="1.77" transform="translate(70.27 -29.9) rotate(84.17)"/></g></svg>