<svg xmlns="http://www.w3.org/2000/svg" viewBox="0 0 60.22 48.07"><title>chart</title><g><path d="M12.85 48.07H6.21A6.22 6.22 0 0 1 0 41.86V15.4a6.22 6.22 0 0 1 6.21-6.21h6.64a6.22 6.22 0 0 1 6.21 6.21v26.46a6.22 6.22 0 0 1-6.21 6.21zM6.21 13.33a2.07 2.07 0 0 0-2.07 2.07v26.46a2.07 2.07 0 0 0 2.07 2.07h6.64a2.07 2.07 0 0 0 2.07-2.07V15.4a2.07 2.07 0 0 0-2.07-2.07zM33.43 48.07h-6.64a6.22 6.22 0 0 1-6.21-6.21V6.21A6.22 6.22 0 0 1 26.79 0h6.64a6.22 6.22 0 0 1 6.21 6.21v35.65a6.22 6.22 0 0 1-6.21 6.21zM26.79 4.14a2.07 2.07 0 0 0-2.07 2.07v35.65a2.07 2.07 0 0 0 2.07 2.07h6.64a2.07 2.07 0 0 0 2.07-2.07V6.21a2.07 2.07 0 0 0-2.07-2.07zM54 48.07h-6.63a6.22 6.22 0 0 1-6.21-6.21v-12a6.22 6.22 0 0 1 6.21-6.21H54a6.22 6.22 0 0 1 6.21 6.21v12A6.22 6.22 0 0 1 54 48.07zm-6.63-20.32a2.07 2.07 0 0 0-2.07 2.07v12a2.07 2.07 0 0 0 2.07 2.07H54a2.07 2.07 0 0 0 2.07-2.07v-12A2.07 2.07 0 0 0 54 27.75z"/></g></svg>