<svg xmlns="http://www.w3.org/2000/svg" viewBox="0 0 49.88 49.88"><title>currency</title><g><path d="M24.94.69a24.25 24.25 0 1 0 24.25 24.25A24.28 24.28 0 0 0 24.94.69zm0 46.11A21.86 21.86 0 1 1 46.8 24.94 21.89 21.89 0 0 1 24.94 46.8zM24.94 49.88a24.94 24.94 0 1 1 24.94-24.94 25 25 0 0 1-24.94 24.94zm0-48.5A23.56 23.56 0 1 0 48.5 24.94 23.59 23.59 0 0 0 24.94 1.38zm0 46.11a22.55 22.55 0 1 1 22.55-22.55 22.58 22.58 0 0 1-22.55 22.55zm0-43.73a21.17 21.17 0 1 0 21.17 21.18A21.2 21.2 0 0 0 24.94 3.77zM31.35 25a7.78 7.78 0 0 0-2.24-1 24.78 24.78 0 0 0-2.53-.54v-4.51a22.25 22.25 0 0 1 5.83 1.14v-4a17 17 0 0 0-2.82-.7 27.77 27.77 0 0 0-3-.34V13h-3.24v2.09a13.11 13.11 0 0 0-3 .65A7.24 7.24 0 0 0 18.17 17a5.18 5.18 0 0 0-1.4 1.81 5.59 5.59 0 0 0-.49 2.39 5.11 5.11 0 0 0 .63 2.68 5 5 0 0 0 1.64 1.67 7.79 7.79 0 0 0 2.27.95 25 25 0 0 0 2.54.5v4.45q-1 0-1.91-.11t-1.67-.24q-.79-.15-1.54-.37t-1.55-.5v4a11.79 11.79 0 0 0 2.91.77 27.83 27.83 0 0 0 3.75.36v2h3.23v-2.11a9.72 9.72 0 0 0 5.17-1.85 5 5 0 0 0 1.82-4.09A4.78 4.78 0 0 0 31.35 25zm-8-2a5.24 5.24 0 0 1-2-.69 1.48 1.48 0 0 1-.65-1.3 1.59 1.59 0 0 1 .57-1.25 3.84 3.84 0 0 1 2.05-.66zm3.23 8.31v-3.86a4.8 4.8 0 0 1 1.9.66 1.48 1.48 0 0 1 .62 1.29q.01 1.54-2.52 1.87z"/></g></svg>