<svg xmlns="http://www.w3.org/2000/svg" viewBox="0 0 56.14 56.15"><title>decline</title><g fill="#e52127"><path d="M56.13 28.07a28.07 28.07 0 1 0-28.06 28.08 28.07 28.07 0 0 0 28.06-28.08zm-52.87 0a24.8 24.8 0 1 1 24.8 24.8 24.84 24.84 0 0 1-24.79-24.8zM38.44 31.5l-1.32-1.32a3 3 0 0 1 0-4.21l4.67-4.67a3 3 0 0 0 0-4.21l-2.73-2.73a3 3 0 0 0-4.21 0L30.17 19A3 3 0 0 1 26 19l-4.67-4.67a3 3 0 0 0-4.21 0l-2.73 2.73a3 3 0 0 0 0 4.21L17 23.92l2 2a3 3 0 0 1 0 4.21l-4.67 4.67a3 3 0 0 0 0 4.21l2.73 2.73a3 3 0 0 0 4.21 0L26 37.12a3 3 0 0 1 4.21 0l4.67 4.67a3 3 0 0 0 4.21 0l2.73-2.73a3 3 0 0 0 0-4.21z"/></g></svg>