<svg xmlns="http://www.w3.org/2000/svg" viewBox="0 0 25.2 32.89"><title>dposit</title><g><path d="M7.62 8.43h9.96v1.5H7.62zM19.64.74a33.71 33.71 0 0 0-14.08 0l2.9 6.93h8.28zM18.15 10.67H7.05C3.3 13.42 0 18.48 0 23.74c0 6.16 5.48 9.15 12.5 9.15h.21c7 0 12.5-3 12.5-9.15 0-5.26-3.3-10.32-7.05-13.06M14 27v1.87h-2.33v-1.72a5.11 5.11 0 0 1-2.25-.81L9 26.05l.17-.49.4-1.12.27-.78.66.45a3.76 3.76 0 0 0 2 .61c.66 0 1.33-.3 1.33-1 0-.4-.18-.84-1.45-1.36-1.55-.61-3.13-1.51-3.13-3.51a3.29 3.29 0 0 1 2.49-3.22v-1.78h2.29v1.67a4.74 4.74 0 0 1 1.82.62l.48.28-.2.54-.41 1.1-.26.71-.64-.37a3.35 3.35 0 0 0-1.77-.48c-.7 0-1.11.29-1.11.77s.12.65 1.64 1.28 3 1.5 3 3.67A3.48 3.48 0 0 1 14 27"/><path fill="none" d="M0 0h25.2v32.89H0z"/></g></svg>