<svg xmlns="http://www.w3.org/2000/svg" xmlns:xlink="http://www.w3.org/1999/xlink" viewBox="0 0 58.43 58.43"><defs><linearGradient id="a" x1="10.93" y1="23.91" x2="39.94" y2="23.91" gradientUnits="userSpaceOnUse"><stop offset="0" stop-color="#426ea9"/><stop offset="1" stop-color="#5c7bb1"/></linearGradient><linearGradient id="b" x1="10.52" y1="23.91" x2="40.35" y2="23.91" xlink:href="#a"/><linearGradient id="c" x1="18.12" y1="24.05" x2="32.74" y2="24.05" xlink:href="#a"/><linearGradient id="d" x1="30.86" y1="42.1" x2="43.38" y2="42.1" xlink:href="#a"/></defs><title>hold</title><g><path d="M29.22 58.43a29.22 29.22 0 1 1 29.21-29.21 29.25 29.25 0 0 1-29.21 29.21z" fill="#fff"/><path d="M25.43 9.41a14.5 14.5 0 1 0 14.5 14.5 14.52 14.52 0 0 0-14.5-14.5zm0 27.58a13.08 13.08 0 1 1 13.08-13.08A13.09 13.09 0 0 1 25.43 37z" fill="url(#a)"/><path d="M25.43 38.83a14.91 14.91 0 1 1 14.92-14.92 14.93 14.93 0 0 1-14.92 14.92zm0-29a14.09 14.09 0 1 0 14.09 14.08A14.1 14.1 0 0 0 25.43 9.82zm0 27.58a13.49 13.49 0 1 1 13.49-13.5A13.5 13.5 0 0 1 25.43 37.4zm0-26.15A12.66 12.66 0 1 0 38.1 23.91a12.68 12.68 0 0 0-12.67-12.66z" fill="url(#b)"/><path d="M30.86 23.89a6.57 6.57 0 0 0-1.86-.83 20.93 20.93 0 0 0-2.14-.46v-3.81a18.8 18.8 0 0 1 4.93 1v-3.4a14.34 14.34 0 0 0-2.38-.59 23.46 23.46 0 0 0-2.55-.28v-1.76H24.1v1.77a11.08 11.08 0 0 0-2.5.55 6.11 6.11 0 0 0-1.88 1 4.38 4.38 0 0 0-1.18 1.53 4.73 4.73 0 0 0-.41 2 4.32 4.32 0 0 0 .53 2.27A4.22 4.22 0 0 0 20 24.34a6.59 6.59 0 0 0 1.92.8 21.16 21.16 0 0 0 2.15.42v3.76q-.88 0-1.61-.09T21.07 29q-.67-.13-1.3-.31t-1.31-.42v3.37a10 10 0 0 0 2.46.7 23.51 23.51 0 0 0 3.17.3v1.68h2.73v-1.75A8.22 8.22 0 0 0 31.2 31a4.21 4.21 0 0 0 1.54-3.45 4 4 0 0 0-1.88-3.67zm-6.76-1.71a4.42 4.42 0 0 1-1.67-.58 1.25 1.25 0 0 1-.55-1.1 1.34 1.34 0 0 1 .48-1.06 3.24 3.24 0 0 1 1.73-.56zm2.73 7V26a4.06 4.06 0 0 1 1.61.56 1.25 1.25 0 0 1 .56 1.06q0 1.31-2.17 1.58z" fill="url(#c)"/><path d="M42.84 40.9h-.55v-3.45a4.73 4.73 0 0 0-4.85-4.6h-.65a4.73 4.73 0 0 0-4.85 4.6v3.45h-.55a.52.52 0 0 0-.53.51v9.43a.52.52 0 0 0 .53.51h11.45a.52.52 0 0 0 .53-.51v-9.43a.52.52 0 0 0-.53-.51zM38.32 48c0 .16-.54.3-1.21.3s-1.21-.13-1.21-.3.58-2.77.62-3a1.21 1.21 0 0 1-.7-1.08 1.28 1.28 0 0 1 2.56 0A1.21 1.21 0 0 1 37.7 45c.05.25.62 3 .62 3zm2-7.05h-6.44v-3.5a2.84 2.84 0 0 1 2.91-2.76h.65a2.84 2.84 0 0 1 2.91 2.76z" fill="url(#d)"/></g></svg>