<svg xmlns="http://www.w3.org/2000/svg" viewBox="0 0 63.08 56.15"><title>options</title><g fill="#11743c"><path d="M9.53 28.17h11.14v.87H9.53zM20.4 28H9.79l-4-9.51L7 18.21a38.86 38.86 0 0 1 16.17 0l1.19.26zm-9.26-2h7.91l2.51-6a36.8 36.8 0 0 0-12.92 0zM15.21 56.15H15c-9.24 0-15-4.31-15-11.24 0-6.46 4.17-12.4 8.3-15.42l.27-.2h13.06l.27.2c4.13 3 8.3 9 8.3 15.42-.01 6.93-5.75 11.24-14.99 11.24zm-.12-2h.12a16.78 16.78 0 0 0 9.36-2.36 7.83 7.83 0 0 0 3.6-6.85c0-5.61-3.58-10.82-7.21-13.59H9.23C5.6 34.09 2 39.29 2 44.91a7.83 7.83 0 0 0 3.6 6.85 16.78 16.78 0 0 0 9.4 2.36h.12zM16.64 48.57v2.09h-2.58v-1.93a5.71 5.71 0 0 1-2.51-.9l-.45-.33.19-.54.44-1.25.31-.87.74.5A4.2 4.2 0 0 0 15 46c.74 0 1.48-.33 1.48-1.08 0-.45-.2-.94-1.62-1.52-1.73-.69-3.5-1.69-3.5-3.92a3.67 3.67 0 0 1 2.78-3.6v-2h2.56v1.87a5.29 5.29 0 0 1 2 .69l.54.32-.23.6-.46 1.23-.3.79-.71-.41a3.74 3.74 0 0 0-2-.54c-.78 0-1.24.32-1.24.86s.13.72 1.83 1.44c1.54.64 3.31 1.68 3.31 4.11a3.89 3.89 0 0 1-2.8 3.73zM42.42 28.17h11.14v.87H42.42zM53.29 28H42.68l-4-9.51 1.21-.25a38.86 38.86 0 0 1 16.17 0l1.19.26zm-9.26-2h7.91l2.51-6a36.8 36.8 0 0 0-12.92 0zM48.1 56.15h-.23c-9.24 0-15-4.31-15-11.24 0-6.46 4.17-12.4 8.3-15.42l.27-.2h13.07l.27.2c4.13 3 8.3 9 8.3 15.42 0 6.93-5.74 11.24-14.98 11.24zm-.12-2h.12a16.78 16.78 0 0 0 9.36-2.36 7.83 7.83 0 0 0 3.6-6.85c0-5.61-3.58-10.82-7.21-13.59H42.12c-3.63 2.77-7.21 8-7.21 13.59a7.83 7.83 0 0 0 3.6 6.85 16.78 16.78 0 0 0 9.36 2.36H48zM49.53 48.57v2.09h-2.58v-1.93a5.71 5.71 0 0 1-2.51-.9l-.44-.34.19-.54.44-1.25.31-.87.74.5a4.2 4.2 0 0 0 2.27.68c.74 0 1.48-.33 1.48-1.08 0-.45-.2-.94-1.62-1.52-1.73-.69-3.5-1.69-3.5-3.92a3.67 3.67 0 0 1 2.78-3.6v-2h2.56v1.87a5.29 5.29 0 0 1 2 .69l.54.32-.23.6-.46 1.23-.3.79-.71-.41a3.74 3.74 0 0 0-2-.54c-.78 0-1.24.32-1.24.86s.13.72 1.83 1.44c1.54.64 3.31 1.68 3.31 4.11a3.89 3.89 0 0 1-2.86 3.72zM24.96 10.8H36.1v.87H24.96zM35.83 10.6H25.22l-4-9.51 1.23-.24a38.86 38.86 0 0 1 16.17 0l1.19.26zm-9.26-2h7.91l2.51-6a36.8 36.8 0 0 0-12.92 0zM32.07 31.21v2.09h-2.58v-1.94a5.71 5.71 0 0 1-2.51-.9l-.45-.33.19-.54.44-1.25.31-.87.74.5a4.2 4.2 0 0 0 2.27.68c.74 0 1.48-.33 1.48-1.08 0-.45-.2-.94-1.62-1.52-1.73-.69-3.5-1.69-3.5-3.92a3.67 3.67 0 0 1 2.78-3.6v-2h2.56v1.87a5.29 5.29 0 0 1 2 .69l.54.32-.23.6-.46 1.23-.3.79-.71-.41a3.74 3.74 0 0 0-2-.54c-.78 0-1.24.32-1.24.86s.13.72 1.83 1.44C33.22 24 35 25 35 27.44a3.89 3.89 0 0 1-2.93 3.77zM24.67 14h11.72a19.32 19.32 0 0 1 4 4.18q1.09-.21 2.18-.36a21.38 21.38 0 0 0-5.22-5.65l-.27-.2H24l-.27.2a21.31 21.31 0 0 0-5.07 5.41c.76.07 1.52.16 2.27.27A19.21 19.21 0 0 1 24.67 14zM35.28 36.29a22.18 22.18 0 0 1-4.64.47h-.23c-.84 0-1.64 0-2.42-.12a20.25 20.25 0 0 1 1 2.11h1.68a25.9 25.9 0 0 0 3.56-.24 20.47 20.47 0 0 1 1.05-2.22z"/></g></svg>