<svg xmlns="http://www.w3.org/2000/svg" xmlns:xlink="http://www.w3.org/1999/xlink" viewBox="0 0 58.43 58.43"><defs><linearGradient id="a" x1="12.67" y1="38.21" x2="46.4" y2="38.21" gradientUnits="userSpaceOnUse"><stop offset="0" stop-color="#426ea9"/><stop offset="1" stop-color="#5c7bb1"/></linearGradient><linearGradient id="b" x1="12.91" y1="20.22" x2="46.64" y2="20.22" xlink:href="#a"/></defs><title>reload_1</title><g><path d="M29.22 58.43a29.22 29.22 0 1 1 29.21-29.21 29.25 29.25 0 0 1-29.21 29.21z" fill="#fff"/><path d="M12.67 43l2.59-11.66 11.66 2.59L22.05 37q.37.36.76.68A10.88 10.88 0 0 0 40.41 31l6-.61a16.75 16.75 0 0 1-27.29 11.87 16.86 16.86 0 0 1-2.17-2L12.67 43z" fill-rule="evenodd" fill="url(#a)"/><path d="M46.64 15.45L44.06 27.1 32.4 24.52l4.86-3.1q-.36-.36-.76-.68a10.88 10.88 0 0 0-17.6 6.67l-6 .61a16.75 16.75 0 0 1 27.3-11.84 16.85 16.85 0 0 1 2.17 2l4.26-2.71z" fill-rule="evenodd" fill="url(#b)"/></g></svg>