<svg xmlns="http://www.w3.org/2000/svg" viewBox="0 0 38.17 49.4"><title>risk-free</title><path d="M38.17 8.23h-.62C29.13 8.23 22 4.82 19.08 0 16.21 4.82 9 8.23.62 8.23H0v19c0 5.14 2.2 15.31 19.08 22.17 16.88-6.86 19.13-17 19.07-22.16.01-1.15.02-18.67.02-19.01zm-2.4 19c.05 4.66-2.07 13.3-16.69 19.54C4.47 40.57 2.35 31.93 2.4 27.27s0-13.67 0-16.67c6.85-.37 13-2.85 16.69-6.7 3.72 3.84 9.84 6.33 16.69 6.7-.01 2.98-.01 16.64-.01 16.64zm-1.52-.05c0 4.2-1.89 12.05-15.21 17.86V24.85h15.21v2.34zM3.83 23.86V11.74c6.08-.4 11.54-2.45 15.17-5.69v18.8H3.83z" fill-rule="evenodd"/></svg>