<svg xmlns="http://www.w3.org/2000/svg" viewBox="0 0 60.93 78.26"><title>sell</title><g fill="#292929"><path d="M19.23 21.8H41.7v1.76H19.23zM41.17 21.4H19.76l-8-19.19 2.44-.5a78.42 78.42 0 0 1 32.63 0l2.39.53zm-18.69-4.09h16l5.03-12.08a74.27 74.27 0 0 0-26.07 0zM30.7 78.26h-.47C11.58 78.26 0 69.57 0 55.58c0-13 8.41-25 16.75-31.12l.54-.39h26.35l.54.39c8.34 6.1 16.75 18.08 16.75 31.12 0 13.99-11.58 22.68-30.23 22.68zm-.23-4.09h.24c7.74 0 14.27-1.65 18.88-4.76a15.8 15.8 0 0 0 7.26-13.83c0-11.33-7.22-21.83-14.54-27.42H18.64C11.31 33.75 4.09 44.25 4.09 55.58a15.8 15.8 0 0 0 7.26 13.83c4.61 3.11 11.14 4.76 18.88 4.76h.23zM33.58 63v4.2h-5.21v-3.91a11.53 11.53 0 0 1-5.07-1.82l-.92-.66.39-1.09.89-2.52.62-1.75 1.5 1a8.48 8.48 0 0 0 4.57 1.38c1.49 0 3-.67 3-2.19 0-.9-.4-1.89-3.28-3.07-3.48-1.39-7.07-3.41-7.07-7.92a7.42 7.42 0 0 1 5.61-7.27v-4.1h5.19v3.77a10.68 10.68 0 0 1 4.11 1.4l1.08.64-.45 1.21-.93 2.49-.61 1.59-1.43-.83a7.55 7.55 0 0 0-4-1.09c-1.57 0-2.51.65-2.51 1.73 0 .79.27 1.46 3.7 2.9 3.11 1.28 6.67 3.38 6.67 8.29A7.85 7.85 0 0 1 33.58 63z"/></g></svg>