<svg xmlns="http://www.w3.org/2000/svg" viewBox="0 0 32.34 36.72"><title>timer</title><g fill="#231f20"><path d="M16.17 30.72a10.17 10.17 0 0 1 0-20.34v10.17h10.17a10.17 10.17 0 0 1-10.17 10.17z"/><rect x="13.46" width="5.7" height="2.17" rx=".27" ry=".27"/><rect x="29.02" y="4.77" width="1.73" height="4.53" rx=".22" ry=".22" transform="translate(3.78 23.19) rotate(-45)"/><path d="M28.47 10.08l.87-.87-1.63-1.63-.86.86a16.1 16.1 0 0 0-9.1-4V3.25h-2.88v1.19a16.19 16.19 0 1 0 13.61 5.64zm-12.3 23.76a13.3 13.3 0 1 1 13.29-13.3 13.31 13.31 0 0 1-13.29 13.3z"/></g></svg>