<svg xmlns="http://www.w3.org/2000/svg" viewBox="0 0 61.4 61.4"><title>tools</title><path d="M61 25.94l-.13-.81-.77.27a6.38 6.38 0 0 1-4.88-11.76l.73-.36-.48-.66a30.8 30.8 0 0 0-6.73-6.73l-.66-.48-.36.73A6.34 6.34 0 0 1 42 9.73a6.37 6.37 0 0 1-6-8.46l.27-.77-.81-.13a31.17 31.17 0 0 0-9.52 0l-.81.13.27.77a6.38 6.38 0 0 1-11.76 4.87l-.36-.73-.66.48a30.81 30.81 0 0 0-6.73 6.73l-.48.66.73.36a6.34 6.34 0 0 1 3.59 5.73 6.37 6.37 0 0 1-8.46 6l-.77-.24-.13.81a30.9 30.9 0 0 0 0 9.52l.13.81.77-.27a6.38 6.38 0 0 1 4.87 11.76l-.73.36.48.66a30.81 30.81 0 0 0 6.73 6.73l.66.48.36-.73a6.38 6.38 0 0 1 11.76 4.87l-.27.77.81.13a30.89 30.89 0 0 0 9.52 0l.81-.13-.27-.77a6.38 6.38 0 0 1 11.76-4.88l.36.73.66-.48a30.81 30.81 0 0 0 6.73-6.73l.48-.66-.73-.36A6.38 6.38 0 0 1 60.14 36l.77.27.13-.81a30.9 30.9 0 0 0 0-9.52zM44.93 30.7A14.23 14.23 0 1 1 30.7 16.47 14.24 14.24 0 0 1 44.93 30.7z"/></svg>