<svg xmlns="http://www.w3.org/2000/svg" viewBox="0 0 40.12 38.97"><title>user</title><path d="M39.31 31.82a5.18 5.18 0 0 0-.75-1.82c-.87-1.18-11-5.17-11-5.17l-2.34-2.76v-2.16a12.77 12.77 0 0 0 1-4c1.3.32 2-5.19 2-5.44a.6.6 0 0 0-.49-.49c.77-8.86-2.23-7.33-2.79-8.41S20.85.09 20.1 0H20c-.75.09-4.38.56-4.88 1.53s-3.56-.45-2.79 8.41a.6.6 0 0 0-.49.49c0 .25.65 5.76 2 5.44a12.77 12.77 0 0 0 1 4v2.16l-2.34 2.76s-10.09 4-11 5.17a5.18 5.18 0 0 0-.75 1.81c0 .62-.81 3.08-.81 4.49v2.61H40.15v-2.56c-.03-1.41-.84-3.86-.84-4.49z"/></svg>