<svg xmlns="http://www.w3.org/2000/svg" viewBox="0 0 56.44 56.45">
  <title>approve</title>
  <g id="Layer_2" data-name="Layer 2">
    <g id="Layer_1-2" >
      <path d="M56.44,28.23A28.22,28.22,0,1,0,28.22,56.45,28.22,28.22,0,0,0,56.44,28.23Zm-53.15,0A24.93,24.93,0,1,1,28.22,53.16,25,25,0,0,1,3.29,28.23Z" fill="#11743c"/>
      <path d="M45.15,19.12,42.6,16.58a2.78,2.78,0,0,0-3.92,0L24.11,31.17l-6.35-6.35a2.78,2.78,0,0,0-3.92,0L11.3,27.36a2.78,2.78,0,0,0,0,3.92l.62.62L22.14,42.12a2.78,2.78,0,0,0,3.92,0l8.28-8.29L45.15,23A2.78,2.78,0,0,0,45.15,19.12Z" fill="#11743c"/>
    </g>
  </g>
</svg>
