<svg xmlns="http://www.w3.org/2000/svg" viewBox="0 0 72.26 48.52">
  <title>bull</title>
  <g id="Layer_2" data-name="Layer 2">
    <g id="Layer_1-2" >
      <g>
        <path d="M43.72,48.52H28.84a6.22,6.22,0,0,1-4.56-10.44l-4.6-13.33a8,8,0,0,1-.34-2.19L18.08,13.7v-.12a8,8,0,0,1,8-8H46.48a8,8,0,0,1,8,8v.12l-1.26,8.85a8,8,0,0,1-.34,2.19l0,.06L48.28,38.07a6.22,6.22,0,0,1-4.56,10.44ZM22.93,23.73l4.69,13.58a4.53,4.53,0,0,0,.22.57l.59,1.3L27.25,40a2.81,2.81,0,0,0,1.59,5.14H43.72A2.81,2.81,0,0,0,45.31,40l-1.17-.81.59-1.3a4.73,4.73,0,0,0,.22-.57l0-.06,4.66-13.51a4.6,4.6,0,0,0,.19-1.31V22.3l1.26-8.83A4.6,4.6,0,0,0,46.48,9H26.09a4.6,4.6,0,0,0-4.6,4.49l1.26,8.83v.12a4.64,4.64,0,0,0,.19,1.31Z"/>
        <path d="M36.62,17.35a27.16,27.16,0,0,1-9-1.57.85.85,0,1,1,.56-1.61,24.18,24.18,0,0,0,16.59,0,.85.85,0,0,1,.58,1.6,25.53,25.53,0,0,1-8.77,1.57Z"/>
        <path d="M34.25,33.44a.85.85,0,0,1-.85-.85,12.35,12.35,0,0,0-1.82-6.88,4,4,0,0,1-2.77-.45,4.77,4.77,0,0,1-2-3.75l-.16-1.3,1.25.39a10.48,10.48,0,0,1,4.61,3.51.85.85,0,0,1,.22.29,13.71,13.71,0,0,1,2.37,8.19.85.85,0,0,1-.85.85ZM29,23.06a2,2,0,0,0,.7.75,1.81,1.81,0,0,0,.48.2,9.15,9.15,0,0,0-1.17-1Z"/>
        <path d="M38.32,33.44a.85.85,0,0,1-.85-.85,13.71,13.71,0,0,1,2.37-8.19.85.85,0,0,1,.22-.29,10.48,10.48,0,0,1,4.61-3.51l1.25-.39-.16,1.3a4.77,4.77,0,0,1-2,3.75,4,4,0,0,1-2.79.45,12.42,12.42,0,0,0-1.8,6.88.85.85,0,0,1-.85.85ZM43.58,23a9,9,0,0,0-1.22,1,1.8,1.8,0,0,0,.52-.22,2,2,0,0,0,.7-.77Z"/>
        <path d="M35.15,43.36a.85.85,0,0,1-.85-.85c0-1.86-1.1-2-1.15-2a.85.85,0,1,1,.16-1.69c.93.09,2.69,1,2.69,3.68a.85.85,0,0,1-.85.85Z"/>
        <path d="M38,43.36a.85.85,0,0,1-.85-.85c0-2.72,1.76-3.6,2.69-3.68a.85.85,0,0,1,.17,1.69c-.2,0-1.16.25-1.16,2a.85.85,0,0,1-.85.85Z"/>
        <g>
          <path d="M17.24,22.26c-7.91,0-13.06-1.74-15.32-5.17C-.57,13.31,1.45,9,1.54,8.83a17.55,17.55,0,0,1,6-7.07C9.21.6,10.44.39,11.18,1.13s.46,2-.15,2.92A17,17,0,0,0,8.55,9.35,1.92,1.92,0,0,0,9.1,11c2,2.07,8.34,2,10.62,1.87a.85.85,0,0,1,.14,1.7c-.92.07-9.09.63-12-2.39a3.65,3.65,0,0,1-1-3.07V9A18.14,18.14,0,0,1,9.64,3.08a1.69,1.69,0,0,0,.28-.66,4.41,4.41,0,0,0-1.41.74,15.88,15.88,0,0,0-5.43,6.4s-1.69,3.64.27,6.6c2.12,3.21,7.8,4.71,16.4,4.34a.85.85,0,0,1,.07,1.7q-1.33.06-2.58.06Z"/>
          <path d="M17.24,22.95c-8.16,0-13.51-1.85-15.9-5.48C-1.35,13.37.82,8.73.92,8.53A18.21,18.21,0,0,1,7.14,1.19c2-1.38,3.51-1.56,4.53-.55s.7,2.7-.07,3.8a16.47,16.47,0,0,0-2.37,5,1.24,1.24,0,0,0,.36,1c1.65,1.72,7.5,1.86,10.07,1.66a1.54,1.54,0,0,1,.24,3.07c-1.56.12-9.49.58-12.54-2.6A4.32,4.32,0,0,1,6.18,9l0-.1A17.6,17.6,0,0,1,8,4.38,15.13,15.13,0,0,0,3.7,9.85s-1.51,3.31.22,5.93c2,3,7.45,4.39,15.79,4a1.56,1.56,0,0,1,1.61,1.47,1.54,1.54,0,0,1-1.47,1.61C18.94,22.93,18.07,22.95,17.24,22.95ZM10.07,1.39a4.49,4.49,0,0,0-2.15.94,16.86,16.86,0,0,0-5.76,6.8c-.08.17-1.94,4.14.33,7.58,2.12,3.23,7.09,4.86,14.75,4.86.8,0,1.66,0,2.55-.06a.16.16,0,0,0,.15-.17c0-.09-.07-.14-.17-.15C10.92,21.57,5,20,2.77,16.54S2.44,9.3,2.46,9.26A16.56,16.56,0,0,1,8.11,2.59a5.19,5.19,0,0,1,1.66-.84l.85-.19A.87.87,0,0,0,10.07,1.39Zm.67.29-.14.86a2.38,2.38,0,0,1-.4.94A17.61,17.61,0,0,0,7.55,9.17v0a2.93,2.93,0,0,0,.82,2.48c2.17,2.26,8.2,2.43,11.43,2.18a.16.16,0,0,0,.15-.17.16.16,0,0,0-.06-.11.16.16,0,0,0-.11,0c-.09,0-8.57.65-11.18-2.08a2.6,2.6,0,0,1-.74-2.19V9.18a17.53,17.53,0,0,1,2.59-5.53C10.9,3,11.13,2.15,10.74,1.68Z"/>
        </g>
        <g>
          <path d="M55,22.26q-1.24,0-2.58-.06a.85.85,0,1,1,.07-1.7c8.6.37,14.28-1.13,16.4-4.34,2-3,.29-6.56.27-6.59a15.89,15.89,0,0,0-5.43-6.41,4.42,4.42,0,0,0-1.41-.74,1.69,1.69,0,0,0,.28.66A18.14,18.14,0,0,1,65.37,9V9.1a3.65,3.65,0,0,1-1,3.07c-2.89,3-11.06,2.46-12,2.39a.85.85,0,0,1,.14-1.7c2.28.18,8.64.2,10.62-1.87a1.92,1.92,0,0,0,.55-1.64,17,17,0,0,0-2.49-5.29c-.6-.87-.91-2.16-.15-2.92s2-.53,3.65.63a17.56,17.56,0,0,1,6,7.08c.08.17,2.11,4.46-.38,8.24-2.26,3.44-7.41,5.17-15.32,5.17Z"/>
          <path d="M55,22.95h0c-.82,0-1.7,0-2.61-.06a1.54,1.54,0,0,1-1.47-1.61,1.56,1.56,0,0,1,1.61-1.47c8.35.35,13.81-1,15.79-4,1.73-2.61.24-5.89.22-5.92a15.18,15.18,0,0,0-4.32-5.49A17.68,17.68,0,0,1,66,8.88l0,.1a4.34,4.34,0,0,1-1.19,3.66c-3,3.18-11,2.72-12.54,2.6a1.54,1.54,0,0,1-.87-2.71,1.51,1.51,0,0,1,1.12-.36c2.57.2,8.41.07,10.06-1.66a1.23,1.23,0,0,0,.36-1,16.42,16.42,0,0,0-2.37-5c-.76-1.1-1.11-2.76-.07-3.8s2.54-.83,4.53.55a18.25,18.25,0,0,1,6.23,7.36c.09.19,2.28,4.8-.43,8.92C68.51,21.1,63.16,22.95,55,22.95Zm-2.54-1.76a.16.16,0,0,0-.16.15.16.16,0,0,0,.15.17c.89,0,1.74.06,2.55.06,7.66,0,12.62-1.64,14.75-4.86,2.28-3.47.36-7.52.34-7.56a16.89,16.89,0,0,0-5.77-6.82c-.9-.62-2.07-1.24-2.69-.77l.85.19a5.21,5.21,0,0,1,1.66.84A16.58,16.58,0,0,1,69.8,9.28c.08.16,1.84,4-.32,7.27s-8.14,5-17,4.65Zm0-7.65a.15.15,0,0,0-.1,0,.16.16,0,0,0-.06.11.16.16,0,0,0,.15.17c3.22.26,9.26.09,11.43-2.18a3,3,0,0,0,.82-2.51v0A17.39,17.39,0,0,0,62,3.48a2.38,2.38,0,0,1-.4-.94l-.14-.86c-.39.47-.16,1.36.27,2a17.49,17.49,0,0,1,2.59,5.53v.09a2.6,2.6,0,0,1-.73,2.19C61,14.19,52.56,13.55,52.48,13.54Z"/>
        </g>
      </g>
    </g>
  </g>
</svg>
