<svg xmlns="http://www.w3.org/2000/svg" viewBox="0 0 47.74 47.73">
  <title>call</title>
  <g id="Layer_2" data-name="Layer 2">
    <g id="Layer_1-2" >
      <g>
        <path d="M23.87,0A23.86,23.86,0,1,0,47.74,23.87,23.86,23.86,0,0,0,23.87,0Zm0,44.95A21.08,21.08,0,1,1,45,23.87,21.12,21.12,0,0,1,23.87,45Z"/>
        <path d="M22.67,8.61l-6.38,11-6.37,11a1.39,1.39,0,0,0,1.21,2.09H36.61A1.38,1.38,0,0,0,38,31.38a1.41,1.41,0,0,0-.18-.7l-6.37-11-6.38-11a1.38,1.38,0,0,0-2.4,0Z"/>
      </g>
    </g>
  </g>
</svg>
