<svg xmlns="http://www.w3.org/2000/svg" viewBox="0 0 60.22 48.07">
  <title>chart</title>
  <g id="Layer_2" data-name="Layer 2">
    <g id="Layer_1-2" >
      <g>
        <path d="M12.85,48.07H6.21A6.22,6.22,0,0,1,0,41.86V15.4A6.22,6.22,0,0,1,6.21,9.19h6.64a6.22,6.22,0,0,1,6.21,6.21V41.86A6.22,6.22,0,0,1,12.85,48.07ZM6.21,13.33A2.07,2.07,0,0,0,4.14,15.4V41.86a2.07,2.07,0,0,0,2.07,2.07h6.64a2.07,2.07,0,0,0,2.07-2.07V15.4a2.07,2.07,0,0,0-2.07-2.07Z"/>
        <path d="M33.43,48.07H26.79a6.22,6.22,0,0,1-6.21-6.21V6.21A6.22,6.22,0,0,1,26.79,0h6.64a6.22,6.22,0,0,1,6.21,6.21V41.86A6.22,6.22,0,0,1,33.43,48.07ZM26.79,4.14a2.07,2.07,0,0,0-2.07,2.07V41.86a2.07,2.07,0,0,0,2.07,2.07h6.64a2.07,2.07,0,0,0,2.07-2.07V6.21a2.07,2.07,0,0,0-2.07-2.07Z"/>
        <path d="M54,48.07H47.37a6.22,6.22,0,0,1-6.21-6.21v-12a6.22,6.22,0,0,1,6.21-6.21H54a6.22,6.22,0,0,1,6.21,6.21v12A6.22,6.22,0,0,1,54,48.07ZM47.37,27.75a2.07,2.07,0,0,0-2.07,2.07v12a2.07,2.07,0,0,0,2.07,2.07H54a2.07,2.07,0,0,0,2.07-2.07v-12A2.07,2.07,0,0,0,54,27.75Z"/>
      </g>
    </g>
  </g>
</svg>
