<svg xmlns="http://www.w3.org/2000/svg" viewBox="0 0 58.3 48.49">
  <title>commudity</title>
  <g id="Layer_2" data-name="Layer 2">
    <g id="Layer_1-2" >
      <g>
        <path d="M18,48.49a5.87,5.87,0,1,1,5.87-5.87A5.88,5.88,0,0,1,18,48.49Zm0-9a3.11,3.11,0,1,0,3.11,3.11A3.11,3.11,0,0,0,18,39.52Z"/>
        <path d="M40.28,48.49a5.87,5.87,0,1,1,5.87-5.87A5.88,5.88,0,0,1,40.28,48.49Zm0-9a3.11,3.11,0,1,0,3.11,3.11A3.11,3.11,0,0,0,40.28,39.52Z"/>
        <path d="M57.77,13.31H52a9.79,9.79,0,0,0-7.37-6.94,10.34,10.34,0,0,0-3.23-4.3,9.74,9.74,0,0,0-6-2.07,9.92,9.92,0,0,0-8.13,4.18,9.84,9.84,0,0,0-6.41-2.36,9.92,9.92,0,0,0-9.48,7A8.45,8.45,0,0,0,7.18,10.6a7.36,7.36,0,0,0-2.25,2.71H.39c-.22,0-.39,0-.39.13v2.69c0,.16.17.22.39.22H2c2.79,7.89,5.62,16.31,8.42,24.38.07.19.25.52.45.52h.47a6.63,6.63,0,0,1,6.54-5.08,6.63,6.63,0,0,1,6.54,5.08h9.38a6.75,6.75,0,0,1,13.08,0h.22c.2,0,.38-.3.45-.49L56,16.35h1.74c.22,0,.53-.06.53-.22V13.45C58.3,13.29,58,13.31,57.77,13.31Zm-49.34,0a5.05,5.05,0,0,1,3.93-1.72,1.51,1.51,0,0,0,1.3-.85,1.47,1.47,0,0,0,.27-.59,7.16,7.16,0,0,1,2.47-4A7.12,7.12,0,0,1,26.49,7.35,1.4,1.4,0,0,0,28.87,7a7.11,7.11,0,0,1,6.55-4.26,7.23,7.23,0,0,1,6.83,5.17A1.48,1.48,0,0,0,43.42,9,6.93,6.93,0,0,1,49,13.31Z"/>
      </g>
    </g>
  </g>
</svg>
