<svg xmlns="http://www.w3.org/2000/svg" viewBox="0 0 56.14 56.15">
  <title>decline</title>
  <g id="Layer_2" data-name="Layer 2">
    <g id="Layer_1-2" >
      <path d="M56.13,28.07A28.07,28.07,0,1,0,28.07,56.15,28.07,28.07,0,0,0,56.13,28.07Zm-52.87,0a24.8,24.8,0,1,1,24.8,24.8A24.84,24.84,0,0,1,3.27,28.07Z" fill="#e52127"/>
      <path d="M38.44,31.5l-1.32-1.32a3,3,0,0,1,0-4.21l4.67-4.67a3,3,0,0,0,0-4.21l-2.73-2.73a3,3,0,0,0-4.21,0L30.17,19A3,3,0,0,1,26,19l-4.67-4.67a3,3,0,0,0-4.21,0l-2.73,2.73a3,3,0,0,0,0,4.21L17,23.92l2,2a3,3,0,0,1,0,4.21l-4.67,4.67a3,3,0,0,0,0,4.21l2.73,2.73a3,3,0,0,0,4.21,0L26,37.12a3,3,0,0,1,4.21,0l4.67,4.67a3,3,0,0,0,4.21,0l2.73-2.73a3,3,0,0,0,0-4.21Z" fill="#e52127"/>
    </g>
  </g>
</svg>
