<svg xmlns="http://www.w3.org/2000/svg" viewBox="0 0 46.94 42.14">
  <title>graph</title>
  <g id="Layer_2" data-name="Layer 2">
    <g id="Layer_1-2" >
      <path d="M2.61,32.46v9.68h11v-18l-.82-.82Zm14.24-5.13V42.14h11V26.21L21.6,32.06ZM44.59.11,38.2,1.85c-1.69.46-2.37,1.51-1.53,2.35L38.2,5.71,21.65,21.12,12.9,12.4,0,23.95l2.61,2.92,10.14-9.08,8.8,8.77L41,8.47l1.68,1.66c.93.92,2,.29,2.48-1.39l1.69-6.4C47.28.65,46.27-.35,44.59.11Zm-13.36,23v19h11V14.24l-.68-.78Z" fill="#0e0d0d"/>
    </g>
  </g>
</svg>
