<svg xmlns="http://www.w3.org/2000/svg" xmlns:xlink="http://www.w3.org/1999/xlink" viewBox="0 0 58.43 58.43">
  <defs>
    <linearGradient id="linear-gradient" x1="10.93" y1="23.91" x2="39.94" y2="23.91" gradientUnits="userSpaceOnUse">
      <stop offset="0" stop-color="#426ea9"/>
      <stop offset="1" stop-color="#5c7bb1"/>
    </linearGradient>
    <linearGradient id="linear-gradient-2" x1="10.52" y1="23.91" x2="40.35" y2="23.91" xlink:href="#linear-gradient"/>
    <linearGradient id="linear-gradient-3" x1="18.12" y1="24.05" x2="32.74" y2="24.05" xlink:href="#linear-gradient"/>
    <linearGradient id="linear-gradient-4" x1="30.86" y1="42.1" x2="43.38" y2="42.1" xlink:href="#linear-gradient"/>
  </defs>
  <title>hold</title>
  <g id="Layer_2" data-name="Layer 2">
    <g id="Layer_1-2" >
      <g>
        <path d="M29.22,58.43A29.22,29.22,0,1,1,58.43,29.22,29.25,29.25,0,0,1,29.22,58.43Z" fill="#fff"/>
        <g>
          <g>
            <path d="M25.43,9.41a14.5,14.5,0,1,0,14.5,14.5A14.52,14.52,0,0,0,25.43,9.41Zm0,27.58A13.08,13.08,0,1,1,38.51,23.91,13.09,13.09,0,0,1,25.43,37Z" fill="url(#linear-gradient)"/>
            <path d="M25.43,38.83A14.91,14.91,0,1,1,40.35,23.91,14.93,14.93,0,0,1,25.43,38.83Zm0-29A14.09,14.09,0,1,0,39.52,23.91,14.1,14.1,0,0,0,25.43,9.82Zm0,27.58A13.49,13.49,0,1,1,38.92,23.91,13.5,13.5,0,0,1,25.43,37.4Zm0-26.15A12.66,12.66,0,1,0,38.1,23.91,12.68,12.68,0,0,0,25.43,11.25Z" fill="url(#linear-gradient-2)"/>
          </g>
          <path d="M30.86,23.89A6.57,6.57,0,0,0,29,23.06a20.93,20.93,0,0,0-2.14-.46V18.79a18.8,18.8,0,0,1,4.93,1v-3.4a14.34,14.34,0,0,0-2.38-.59,23.46,23.46,0,0,0-2.55-.28V13.76H24.1v1.77a11.08,11.08,0,0,0-2.5.55,6.11,6.11,0,0,0-1.88,1,4.38,4.38,0,0,0-1.18,1.53,4.73,4.73,0,0,0-.41,2,4.32,4.32,0,0,0,.53,2.27A4.22,4.22,0,0,0,20,24.34a6.59,6.59,0,0,0,1.92.8,21.16,21.16,0,0,0,2.15.42v3.76q-.88,0-1.61-.09T21.07,29q-.67-.13-1.3-.31t-1.31-.42v3.37a10,10,0,0,0,2.46.7,23.51,23.51,0,0,0,3.17.3v1.68h2.73V32.57A8.22,8.22,0,0,0,31.2,31a4.21,4.21,0,0,0,1.54-3.45,4,4,0,0,0-1.88-3.67ZM24.1,22.18a4.42,4.42,0,0,1-1.67-.58,1.25,1.25,0,0,1-.55-1.1,1.34,1.34,0,0,1,.48-1.06,3.24,3.24,0,0,1,1.73-.56Zm2.73,7V26a4.06,4.06,0,0,1,1.61.56A1.25,1.25,0,0,1,29,27.62Q29,28.93,26.83,29.2Z" fill="url(#linear-gradient-3)"/>
        </g>
        <path d="M42.84,40.9h-.55V37.45a4.73,4.73,0,0,0-4.85-4.6h-.65a4.73,4.73,0,0,0-4.85,4.6V40.9h-.55a.52.52,0,0,0-.53.51v9.43a.52.52,0,0,0,.53.51H42.84a.52.52,0,0,0,.53-.51V41.41A.52.52,0,0,0,42.84,40.9ZM38.32,48c0,.16-.54.3-1.21.3s-1.21-.13-1.21-.3.58-2.77.62-3a1.21,1.21,0,0,1-.7-1.08,1.28,1.28,0,0,1,2.56,0A1.21,1.21,0,0,1,37.7,45C37.75,45.25,38.32,48,38.32,48Zm2-7.05H33.88V37.45a2.84,2.84,0,0,1,2.91-2.76h.65a2.84,2.84,0,0,1,2.91,2.76Z" fill="url(#linear-gradient-4)"/>
      </g>
    </g>
  </g>
</svg>
