<svg xmlns="http://www.w3.org/2000/svg" viewBox="0 0 41.61 51.15">
  <title>lock</title>
  <g id="Layer_2" data-name="Layer 2">
    <g id="Layer_1-2" >
      <path d="M39.84,22.27H38V12.73C38,5.7,30.79,0,21.88,0H19.73C10.82,0,3.6,5.7,3.6,12.73v9.54H1.77A1.62,1.62,0,0,0,0,23.67V49.75a1.62,1.62,0,0,0,1.77,1.4H39.84a1.62,1.62,0,0,0,1.77-1.4V23.67A1.62,1.62,0,0,0,39.84,22.27Zm-15,19.51c0,.46-1.79.83-4,.83s-4-.37-4-.83,1.92-7.65,2.07-8.26a3.37,3.37,0,0,1-2.32-3c0-1.86,1.91-3.36,4.26-3.36s4.26,1.5,4.26,3.36a3.38,3.38,0,0,1-2.33,3C22.89,34.29,24.81,41.78,24.81,41.78Zm6.75-19.51H10.05V12.73c0-4.21,4.34-7.64,9.68-7.64h2.15c5.34,0,9.68,3.43,9.68,7.64Z"/>
    </g>
  </g>
</svg>
