<svg xmlns="http://www.w3.org/2000/svg" viewBox="0 0 63.08 56.15">
  <title>options</title>
  <g id="Layer_2" data-name="Layer 2">
    <g id="Layer_1-2" >
      <g>
        <g>
          <rect x="9.53" y="28.17" width="11.14" height="0.87" fill="#11743c"/>
          <path d="M20.4,28H9.79l-4-9.51L7,18.21a38.86,38.86,0,0,1,16.17,0l1.19.26Zm-9.26-2h7.91l2.51-6A36.8,36.8,0,0,0,8.64,20Z" fill="#11743c"/>
          <path d="M15.21,56.15H15c-9.24,0-15-4.31-15-11.24,0-6.46,4.17-12.4,8.3-15.42l.27-.2H21.63l.27.2c4.13,3,8.3,9,8.3,15.42C30.19,51.84,24.45,56.15,15.21,56.15Zm-.12-2h.12a16.78,16.78,0,0,0,9.36-2.36,7.83,7.83,0,0,0,3.6-6.85c0-5.61-3.58-10.82-7.21-13.59H9.23C5.6,34.09,2,39.29,2,44.91a7.83,7.83,0,0,0,3.6,6.85A16.78,16.78,0,0,0,15,54.12h.12Z" fill="#11743c"/>
          <path d="M16.64,48.57v2.09H14.06V48.73a5.71,5.71,0,0,1-2.51-.9l-.45-.33.19-.54.44-1.25.31-.87.74.5A4.2,4.2,0,0,0,15,46c.74,0,1.48-.33,1.48-1.08,0-.45-.2-.94-1.62-1.52-1.73-.69-3.5-1.69-3.5-3.92a3.67,3.67,0,0,1,2.78-3.6v-2h2.56v1.87a5.29,5.29,0,0,1,2,.69l.54.32-.23.6-.46,1.23-.3.79-.71-.41a3.74,3.74,0,0,0-2-.54c-.78,0-1.24.32-1.24.86s.13.72,1.83,1.44c1.54.64,3.31,1.68,3.31,4.11A3.89,3.89,0,0,1,16.64,48.57Z" fill="#11743c"/>
        </g>
        <g>
          <rect x="42.42" y="28.17" width="11.14" height="0.87" fill="#11743c"/>
          <path d="M53.29,28H42.68l-4-9.51,1.21-.25a38.86,38.86,0,0,1,16.17,0l1.19.26Zm-9.26-2h7.91l2.51-6a36.8,36.8,0,0,0-12.92,0Z" fill="#11743c"/>
          <path d="M48.1,56.15h-.23c-9.24,0-15-4.31-15-11.24,0-6.46,4.17-12.4,8.3-15.42l.27-.2H54.51l.27.2c4.13,3,8.3,9,8.3,15.42C63.08,51.84,57.34,56.15,48.1,56.15Zm-.12-2h.12a16.78,16.78,0,0,0,9.36-2.36,7.83,7.83,0,0,0,3.6-6.85c0-5.61-3.58-10.82-7.21-13.59H42.12c-3.63,2.77-7.21,8-7.21,13.59a7.83,7.83,0,0,0,3.6,6.85,16.78,16.78,0,0,0,9.36,2.36H48Z" fill="#11743c"/>
          <path d="M49.53,48.57v2.09H46.95V48.73a5.71,5.71,0,0,1-2.51-.9L44,47.49l.19-.54.44-1.25.31-.87.74.5a4.2,4.2,0,0,0,2.27.68c.74,0,1.48-.33,1.48-1.08,0-.45-.2-.94-1.62-1.52-1.73-.69-3.5-1.69-3.5-3.92a3.67,3.67,0,0,1,2.78-3.6v-2h2.56v1.87a5.29,5.29,0,0,1,2,.69l.54.32-.23.6-.46,1.23-.3.79-.71-.41a3.74,3.74,0,0,0-2-.54c-.78,0-1.24.32-1.24.86s.13.72,1.83,1.44c1.54.64,3.31,1.68,3.31,4.11A3.89,3.89,0,0,1,49.53,48.57Z" fill="#11743c"/>
        </g>
        <g>
          <rect x="24.96" y="10.8" width="11.14" height="0.87" fill="#11743c"/>
          <path d="M35.83,10.6H25.22l-4-9.51L22.45.85a38.86,38.86,0,0,1,16.17,0l1.19.26Zm-9.26-2h7.91l2.51-6a36.8,36.8,0,0,0-12.92,0Z" fill="#11743c"/>
          <path d="M32.07,31.21V33.3H29.49V31.36a5.71,5.71,0,0,1-2.51-.9l-.45-.33.19-.54.44-1.25.31-.87.74.5a4.2,4.2,0,0,0,2.27.68c.74,0,1.48-.33,1.48-1.08,0-.45-.2-.94-1.62-1.52-1.73-.69-3.5-1.69-3.5-3.92a3.67,3.67,0,0,1,2.78-3.6v-2h2.56v1.87a5.29,5.29,0,0,1,2,.69l.54.32-.23.6-.46,1.23-.3.79-.71-.41a3.74,3.74,0,0,0-2-.54c-.78,0-1.24.32-1.24.86s.13.72,1.83,1.44C33.22,24,35,25,35,27.44A3.89,3.89,0,0,1,32.07,31.21Z" fill="#11743c"/>
          <g>
            <path d="M24.67,14H36.39a19.32,19.32,0,0,1,4,4.18q1.09-.21,2.18-.36a21.38,21.38,0,0,0-5.22-5.65l-.27-.2H24l-.27.2a21.31,21.31,0,0,0-5.07,5.41c.76.07,1.52.16,2.27.27A19.21,19.21,0,0,1,24.67,14Z" fill="#11743c"/>
            <path d="M35.28,36.29a22.18,22.18,0,0,1-4.64.47h-.23c-.84,0-1.64,0-2.42-.12a20.25,20.25,0,0,1,1,2.11c.47,0,1,0,1.45,0h.23a25.9,25.9,0,0,0,3.56-.24A20.47,20.47,0,0,1,35.28,36.29Z" fill="#11743c"/>
          </g>
        </g>
      </g>
    </g>
  </g>
</svg>
