<svg xmlns="http://www.w3.org/2000/svg" viewBox="0 0 28.81 26.2">
  <title>out</title>
  <g id="Layer_2" data-name="Layer 2">
    <g id="Layer_1-2" >
      <g>
        <path d="M0,12.83a2.05,2.05,0,0,1,0-.21,2.32,2.32,0,0,1,.09-.29c0-.05,0-.11,0-.16a2.41,2.41,0,0,1,.15-.3s0-.09.07-.13a2.58,2.58,0,0,1,.22-.28l.08-.1h0L8.92,3.14a2.47,2.47,0,1,1,3.49,3.49l-4,4H20.17a2.46,2.46,0,0,1,0,4.92H8.43l4,4A2.47,2.47,0,0,1,8.92,23L.7,14.81h0l-.08-.09a2.69,2.69,0,0,1-.23-.29l-.06-.12A2.67,2.67,0,0,1,.18,14c0-.05,0-.1,0-.16a2.4,2.4,0,0,1-.09-.3,2,2,0,0,1,0-.21,2.45,2.45,0,0,1,0-.26A2.43,2.43,0,0,1,0,12.83Z"/>
        <path d="M22,23.46c1.12,0,2.65.28,3.56-.51.63-.54.51-1.5.51-2.24V5.45a3,3,0,0,0-.51-2.24C24.89,2.38,23,2.7,22,2.7A1.35,1.35,0,0,1,22,0a10.74,10.74,0,0,1,4.44.53,4.45,4.45,0,0,1,2.34,4.08V21.55a4.65,4.65,0,0,1-2.34,4.08c-1.25.78-3,.53-4.44.53A1.35,1.35,0,0,1,22,23.46Z"/>
      </g>
    </g>
  </g>
</svg>
