<svg xmlns="http://www.w3.org/2000/svg" viewBox="0 0 33.97 33.61">
  <title>reload</title>
  <g id="Layer_2" data-name="Layer 2">
    <g id="Layer_1-2" >
      <path d="M0,30.57,2.59,18.91,14.25,21.5,9.38,24.6q.37.36.76.68a10.88,10.88,0,0,0,17.6-6.67l6-.61A16.75,16.75,0,0,1,6.44,29.84h0a16.86,16.86,0,0,1-2.17-2L0,30.57Z" fill="#010101" fill-rule="evenodd"/>
      <path d="M34,3,31.38,14.69,19.72,12.1,24.59,9q-.36-.36-.76-.68A10.88,10.88,0,0,0,6.23,15l-6,.61A16.75,16.75,0,0,1,27.53,3.76h0a16.85,16.85,0,0,1,2.17,2L34,3Z" fill="#010101" fill-rule="evenodd"/>
    </g>
  </g>
</svg>
