<svg xmlns="http://www.w3.org/2000/svg" xmlns:xlink="http://www.w3.org/1999/xlink" viewBox="0 0 58.43 58.43">
  <defs>
    <linearGradient id="linear-gradient" x1="12.67" y1="38.21" x2="46.4" y2="38.21" gradientUnits="userSpaceOnUse">
      <stop offset="0" stop-color="#426ea9"/>
      <stop offset="1" stop-color="#5c7bb1"/>
    </linearGradient>
    <linearGradient id="linear-gradient-2" x1="12.91" y1="20.22" x2="46.64" y2="20.22" xlink:href="#linear-gradient"/>
  </defs>
  <title>reload_1</title>
  <g id="Layer_2" data-name="Layer 2">
    <g id="Layer_1-2" >
      <g>
        <path d="M29.22,58.43A29.22,29.22,0,1,1,58.43,29.22,29.25,29.25,0,0,1,29.22,58.43Z" fill="#fff"/>
        <path d="M12.67,43l2.59-11.66,11.66,2.59L22.05,37q.37.36.76.68A10.88,10.88,0,0,0,40.41,31l6-.61A16.75,16.75,0,0,1,19.12,42.26h0a16.86,16.86,0,0,1-2.17-2L12.67,43Z" fill-rule="evenodd" fill="url(#linear-gradient)"/>
      </g>
      <path d="M46.64,15.45,44.06,27.1,32.4,24.52l4.86-3.1q-.36-.36-.76-.68a10.88,10.88,0,0,0-17.6,6.67l-6,.61A16.75,16.75,0,0,1,40.2,16.18h0a16.85,16.85,0,0,1,2.17,2l4.26-2.71Z" fill-rule="evenodd" fill="url(#linear-gradient-2)"/>
    </g>
  </g>
</svg>
