<svg xmlns="http://www.w3.org/2000/svg" viewBox="0 0 38.17 49.4">
  <title>risk-free</title>
  <g id="Layer_2" data-name="Layer 2">
    <g id="Layer_1-2" >
      <path d="M38.17,8.23h-.62C29.13,8.23,22,4.82,19.08,0,16.21,4.82,9,8.23.62,8.23H0c0,.34,0,17.86,0,19C0,32.37,2.2,42.54,19.08,49.4h0c16.88-6.86,19.13-17,19.07-22.16C38.16,26.09,38.17,8.57,38.17,8.23Zm-2.4,19h0c.05,4.66-2.07,13.3-16.69,19.54C4.47,40.57,2.35,31.93,2.4,27.27h0s0-13.67,0-16.67c6.85-.37,13-2.85,16.69-6.7,3.72,3.84,9.84,6.33,16.69,6.7C35.77,13.58,35.77,27.24,35.77,27.24Zm-1.52-.05c0,4.2-1.89,12.05-15.21,17.86V24.85H34.25v2.34ZM3.83,23.86c0-4.37,0-9.21,0-12.12C9.91,11.34,15.37,9.29,19,6.05v18.8H3.83Z" fill-rule="evenodd"/>
    </g>
  </g>
</svg>
