<svg xmlns="http://www.w3.org/2000/svg" viewBox="0 0 60.93 78.26">
  <title>sell</title>
  <g id="Layer_2" data-name="Layer 2">
    <g id="Layer_1-2" >
      <g>
        <rect x="19.23" y="21.8" width="22.47" height="1.76" fill="#292929"/>
        <path d="M41.17,21.4H19.76l-8-19.19,2.44-.5a78.42,78.42,0,0,1,32.63,0l2.39.53ZM22.48,17.31h16L43.51,5.23a74.27,74.27,0,0,0-26.07,0Z" fill="#292929"/>
        <path d="M30.7,78.26h-.47C11.58,78.26,0,69.57,0,55.58c0-13,8.41-25,16.75-31.12l.54-.39H43.64l.54.39c8.34,6.1,16.75,18.08,16.75,31.12C60.93,69.57,49.35,78.26,30.7,78.26Zm-.23-4.09h.24c7.74,0,14.27-1.65,18.88-4.76a15.8,15.8,0,0,0,7.26-13.83c0-11.33-7.22-21.83-14.54-27.42H18.64C11.31,33.75,4.09,44.25,4.09,55.58a15.8,15.8,0,0,0,7.26,13.83c4.61,3.11,11.14,4.76,18.88,4.76h.23Z" fill="#292929"/>
        <path d="M33.58,63V67.2H28.37V63.29a11.53,11.53,0,0,1-5.07-1.82l-.92-.66.39-1.09.89-2.52.62-1.75,1.5,1a8.48,8.48,0,0,0,4.57,1.38c1.49,0,3-.67,3-2.19,0-.9-.4-1.89-3.28-3.07C26.59,51.18,23,49.16,23,44.65a7.42,7.42,0,0,1,5.61-7.27v-4.1H33.8v3.77a10.68,10.68,0,0,1,4.11,1.4l1.08.64-.45,1.21-.93,2.49L37,44.38l-1.43-.83a7.55,7.55,0,0,0-4-1.09c-1.57,0-2.51.65-2.51,1.73,0,.79.27,1.46,3.7,2.9,3.11,1.28,6.67,3.38,6.67,8.29A7.85,7.85,0,0,1,33.58,63Z" fill="#292929"/>
      </g>
    </g>
  </g>
</svg>
