<svg xmlns="http://www.w3.org/2000/svg" viewBox="0 0 51.24 47.1">
  <title>shop-bag</title>
  <g id="Layer_2" data-name="Layer 2">
    <g id="Layer_1-2" >
      <g>
        <path d="M49.19,19H40.33a3.5,3.5,0,0,1-1.95,3.7,3,3,0,0,1-1.15.23,4,4,0,0,1-3.53-2.6L33.15,19H18.08l-.55,1.32A4,4,0,0,1,14,23a3,3,0,0,1-1.15-.23A3.5,3.5,0,0,1,10.91,19H2a2,2,0,0,0-2,2v1.43a2,2,0,0,0,2,2H3.7c.29,4.24,2,22.33,9.67,22.53,5.25.13,9.61-.43,12.25-.43s7,.56,12.25.43c7.71-.19,9.38-18.28,9.67-22.53h1.65a2,2,0,0,0,2-2V21.07A2,2,0,0,0,49.19,19Zm-34,24-.26,0a2,2,0,0,1-1.82-1.8l-2.46-12.7a2,2,0,0,1,1.27-2.42l.27,0A2,2,0,0,1,14,27.94l2.46,12.7A2,2,0,0,1,15.21,43.06Zm12.13-2.6a2,2,0,0,1-1.71,2.18A1.55,1.55,0,0,1,24.41,42a2.5,2.5,0,0,1-.5-1.54V27.28a2,2,0,0,1,1.71-2.18,1.55,1.55,0,0,1,1.21.64,2.5,2.5,0,0,1,.5,1.54ZM40.58,28.59l-2.46,12.7a2,2,0,0,1-1.82,1.8l-.26,0a2,2,0,0,1-1.27-2.42l2.46-12.7A2,2,0,0,1,39,26.14l.27,0A2,2,0,0,1,40.58,28.59Z" fill="#0e0d0d"/>
        <path d="M34.33,19l.38.91a2.92,2.92,0,0,0,2.52,1.93,1.92,1.92,0,0,0,.74-.14A2.44,2.44,0,0,0,39.24,19a3.52,3.52,0,0,0-.24-.87L32.27,1.93A2.92,2.92,0,0,0,29.74,0,1.91,1.91,0,0,0,29,.15a2.66,2.66,0,0,0-1,3.57Z" fill="#0e0d0d"/>
        <path d="M13.27,21.72a1.92,1.92,0,0,0,.74.14,2.92,2.92,0,0,0,2.52-1.93l.38-.91L23.26,3.72a2.66,2.66,0,0,0-1-3.57A1.92,1.92,0,0,0,21.5,0,2.92,2.92,0,0,0,19,1.93L12.24,18.15A3.52,3.52,0,0,0,12,19,2.44,2.44,0,0,0,13.27,21.72Z" fill="#0e0d0d"/>
      </g>
    </g>
  </g>
</svg>
