<svg xmlns="http://www.w3.org/2000/svg" viewBox="0 0 32.34 36.72">
  <title>timer</title>
  <g id="Layer_2" data-name="Layer 2">
    <g id="Layer_1-2" >
      <g>
        <path d="M16.17,30.72a10.17,10.17,0,0,1,0-20.34V20.55H26.34A10.17,10.17,0,0,1,16.17,30.72Z" fill="#231f20"/>
        <rect x="13.46" width="5.7" height="2.17" rx="0.27" ry="0.27" fill="#231f20"/>
        <rect x="29.02" y="4.77" width="1.73" height="4.53" rx="0.22" ry="0.22" transform="translate(3.78 23.19) rotate(-45)" fill="#231f20"/>
        <path d="M28.47,10.08l.87-.87L27.71,7.58l-.86.86a16.1,16.1,0,0,0-9.1-4V3.25H14.87V4.44a16.19,16.19,0,1,0,13.61,5.64ZM16.17,33.84a13.3,13.3,0,1,1,13.29-13.3A13.31,13.31,0,0,1,16.17,33.84Z" fill="#231f20"/>
      </g>
    </g>
  </g>
</svg>
