<svg xmlns="http://www.w3.org/2000/svg" viewBox="0 0 40.12 38.97">
  <title>user</title>
  <g id="Layer_2" data-name="Layer 2">
    <g id="Layer_1-2" >
      <path d="M39.31,31.82A5.18,5.18,0,0,0,38.56,30c-.87-1.18-11-5.17-11-5.17l-2.34-2.76s0-2.16,0-2.16a12.77,12.77,0,0,0,1-4c1.3.32,2-5.19,2-5.44a.6.6,0,0,0-.49-.49c.77-8.86-2.23-7.33-2.79-8.41S20.85.09,20.1,0H20c-.75.09-4.38.56-4.88,1.53s-3.56-.45-2.79,8.41a.6.6,0,0,0-.49.49c0,.25.65,5.76,2,5.44a12.77,12.77,0,0,0,1,4s0,2.16,0,2.16l-2.34,2.76s-10.09,4-11,5.17a5.18,5.18,0,0,0-.75,1.81c0,.62-.81,3.08-.81,4.49v2.61l18.15,0H22l18.15,0V36.31C40.12,34.9,39.31,32.45,39.31,31.82Z"/>
    </g>
  </g>
</svg>
